# xmcd CD database file
#
# Track frame offsets:
#	150
#	18611
#	37476
#	52850
#	69014
#	89146
#	106652
#	121817
#	138665
#	155483
#	172192
#	189569
#
# Disc length: 2729 seconds
#
# Revision: 0
# Processed by: cddbd v1.5.1PL2 Copyright (c) Steve Scherf et al.
# Submitted via: CDex 1.51
#
DISCID=a70aa70c
DTITLE=San Glaser - Never In Vain
DYEAR=2005
DGENRE=Jazz
TTITLE0=All Of My Live
TTITLE1=Miracles
TTITLE2=Consequences
TTITLE3=Talk To Me
TTITLE4=We All Love The Same
TTITLE5=Let There Be You
TTITLE6=Theme From Mahagony
TTITLE7=Never In Vain
TTITLE8=This Thing Called Love
TTITLE9=Don't Hold Back
TTITLE10=Comin' Home
TTITLE11=In My Dreams
EXTD=YEAR: 2005
EXTT0=
EXTT1=
EXTT2=
EXTT3=
EXTT4=
EXTT5=
EXTT6=
EXTT7=
EXTT8=
EXTT9=
EXTT10=
EXTT11=
PLAYORDER=
